<svg xmlns="http://www.w3.org/2000/svg" viewBox="0 0 744.55 82.36"><g id="Layer_2" data-name="Layer 2"><g id="Layer_1-2" data-name="Layer 1"><path d="M77.5,64H60.19l25.2,18.1h17.15s0-.05,0-.06Zm24.9-32.18A28.24,28.24,0,0,0,74.37,0H0a0,0,0,0,0,0,0V10.2a0,0,0,0,0,0,0H74.37A18,18,0,0,1,92.3,29c-.46,9.72-8.8,17.21-18.53,17.21H12.21A12.21,12.21,0,0,0,0,58.46V82.11s0,0,0,0H10.29a0,0,0,0,0,0,0V60a3.51,3.51,0,0,1,3.51-3.5H74.24C88.35,56.24,100.6,45.9,102.4,31.86Z"/><path d="M132.9,0h10.33V82.14H132.9Z"/><path d="M273.68,0,228.1,79h0a6.88,6.88,0,0,1-11.82,0h0L170.7,0h11.82l39.67,68.74L261.85,0Z"/><path d="M276.09,82.36l45.58-79h0a6.87,6.87,0,0,1,11.82,0h0l45.58,79H367.25L327.58,13.63,287.92,82.36Z"/><path d="M418.31,71.82A12.74,12.74,0,0,1,405.53,59V23A12.72,12.72,0,0,1,418.2,10.23h69.24L487.53,0H418.2a23,23,0,0,0-23,23V59a23.09,23.09,0,0,0,23.11,23.11h69.31V71.82Z"/><path d="M519.2,0H619.26l0,10.2H573V82.14h-10.2V10.23H519.2Z"/><path d="M665,0h56.43a23.08,23.08,0,0,1,23.11,23.11V59a23.08,23.08,0,0,1-23.11,23.11H665A23.08,23.08,0,0,1,641.9,59V23.14A23.08,23.08,0,0,1,665,0ZM652.22,23.14V59A12.82,12.82,0,0,0,665,71.82h56.43A12.92,12.92,0,0,0,734.34,59V23.14a13,13,0,0,0-12.9-12.91H665A12.92,12.92,0,0,0,652.22,23.14Z"/></g></g></svg>